<svg id="visual" viewBox="0 0 900 600" width="900" height="600" xmlns="http://www.w3.org/2000/svg" xmlns:xlink="http://www.w3.org/1999/xlink" version="1.1"><rect x="0" y="0" width="900" height="600" fill="#001122"></rect><path d="M0 302L64 306L129 271L193 241L257 318L321 314L386 278L450 208L514 238L579 211L643 283L707 166L771 189L836 151L900 191L900 601L836 601L771 601L707 601L643 601L579 601L514 601L450 601L386 601L321 601L257 601L193 601L129 601L64 601L0 601Z" fill="#110af5"></path><path d="M0 250L64 384L129 263L193 247L257 253L321 342L386 346L450 234L514 337L579 308L643 315L707 375L771 346L836 292L900 270L900 601L836 601L771 601L707 601L643 601L579 601L514 601L450 601L386 601L321 601L257 601L193 601L129 601L64 601L0 601Z" fill="#0030fa"></path><path d="M0 428L64 349L129 326L193 361L257 355L321 440L386 385L450 313L514 404L579 410L643 397L707 348L771 367L836 336L900 379L900 601L836 601L771 601L707 601L643 601L579 601L514 601L450 601L386 601L321 601L257 601L193 601L129 601L64 601L0 601Z" fill="#0045fd"></path><path d="M0 448L64 478L129 410L193 418L257 441L321 469L386 477L450 492L514 439L579 406L643 486L707 401L771 485L836 486L900 404L900 601L836 601L771 601L707 601L643 601L579 601L514 601L450 601L386 601L321 601L257 601L193 601L129 601L64 601L0 601Z" fill="#0057ff"></path><path d="M0 485L64 466L129 540L193 530L257 467L321 503L386 551L450 507L514 510L579 535L643 510L707 548L771 471L836 475L900 537L900 601L836 601L771 601L707 601L643 601L579 601L514 601L450 601L386 601L321 601L257 601L193 601L129 601L64 601L0 601Z" fill="#0066ff"></path></svg>